<svg 
 xmlns="http://www.w3.org/2000/svg"
 xmlns:xlink="http://www.w3.org/1999/xlink"
 width="20px" height="20px">
<path fill-rule="evenodd"  fill="rgb(255, 255, 255)"
 d="M10.000,20.000 C4.475,20.000 -0.000,15.525 -0.000,10.000 C-0.000,4.475 4.475,-0.000 10.000,-0.000 C15.525,-0.000 20.000,4.475 20.000,10.000 C20.000,15.525 15.525,20.000 10.000,20.000 ZM10.000,2.000 C5.590,2.000 2.000,5.590 2.000,10.000 C2.000,14.410 5.590,18.000 10.000,18.000 C14.410,18.000 18.000,14.410 18.000,10.000 C18.000,5.590 14.410,2.000 10.000,2.000 ZM8.075,11.125 C8.130,11.455 8.230,11.745 8.375,12.000 C8.520,12.255 8.720,12.460 8.970,12.620 C9.210,12.770 9.505,12.845 9.865,12.855 C10.080,12.855 10.280,12.820 10.470,12.755 C10.670,12.685 10.845,12.585 10.995,12.460 C11.145,12.335 11.265,12.185 11.355,12.005 C11.445,11.825 11.495,11.635 11.505,11.425 L13.295,11.425 C13.280,11.835 13.175,12.215 12.995,12.575 C12.815,12.935 12.565,13.245 12.255,13.515 C11.945,13.785 11.585,13.995 11.175,14.150 C10.765,14.305 10.325,14.380 9.855,14.380 C9.205,14.380 8.640,14.270 8.155,14.045 C7.670,13.820 7.270,13.515 6.950,13.130 C6.630,12.745 6.390,12.295 6.235,11.780 C6.080,11.265 6.000,10.720 6.000,10.140 L6.000,9.865 C6.000,9.290 6.075,8.745 6.230,8.230 C6.385,7.715 6.625,7.265 6.945,6.875 C7.265,6.485 7.665,6.180 8.145,5.955 C8.625,5.730 9.190,5.620 9.840,5.620 C10.350,5.620 10.815,5.700 11.235,5.855 C11.655,6.010 12.015,6.225 12.315,6.510 C12.615,6.795 12.855,7.130 13.020,7.520 C13.185,7.910 13.280,8.340 13.295,8.810 L11.505,8.810 C11.495,8.585 11.450,8.370 11.370,8.170 C11.290,7.970 11.180,7.790 11.035,7.640 C10.890,7.490 10.720,7.370 10.515,7.280 C10.325,7.195 10.105,7.155 9.865,7.150 C9.500,7.155 9.205,7.235 8.970,7.380 C8.725,7.535 8.525,7.740 8.380,7.995 C8.235,8.250 8.135,8.540 8.080,8.865 C8.025,9.190 8.000,9.525 8.000,9.865 L8.000,10.140 C8.000,10.475 8.020,10.795 8.075,11.125 Z"/>
</svg>