<svg 
 xmlns="http://www.w3.org/2000/svg"
 xmlns:xlink="http://www.w3.org/1999/xlink"
 width="31px" height="31px">
<path fill-rule="evenodd"  fill="rgb(239, 142, 135)"
 d="M15.500,0.500 C7.216,0.500 0.500,7.218 0.500,15.500 C0.500,23.785 7.216,30.499 15.500,30.499 C23.784,30.499 30.500,23.785 30.500,15.500 C30.500,7.218 23.784,0.500 15.500,0.500 ZM19.471,15.437 L16.873,15.437 C16.873,19.588 16.873,24.701 16.873,24.701 L13.023,24.701 C13.023,24.701 13.023,19.641 13.023,15.437 L11.192,15.437 L11.192,12.167 L13.023,12.167 L13.023,10.048 C13.023,8.531 13.743,6.163 16.909,6.163 L19.759,6.174 L19.759,9.351 C19.759,9.351 18.026,9.351 17.689,9.351 C17.352,9.351 16.873,9.520 16.873,10.241 L16.873,12.167 L19.808,12.167 L19.471,15.437 Z"/>
</svg>