<svg 
 xmlns="http://www.w3.org/2000/svg"
 xmlns:xlink="http://www.w3.org/1999/xlink"
 width="30px" height="30px">
<path fill-rule="evenodd"  fill="rgb(239, 142, 135)"
 d="M14.999,29.995 C6.731,29.995 0.003,23.268 0.003,14.999 C0.003,6.731 6.731,0.003 14.999,0.003 C23.268,0.003 29.995,6.731 29.995,14.999 C29.995,23.268 23.268,29.995 14.999,29.995 ZM23.528,13.249 L23.528,9.768 C23.528,7.949 22.049,6.471 20.231,6.471 L9.767,6.471 C7.949,6.471 6.471,7.949 6.471,9.768 L6.471,13.249 L6.471,20.232 C6.471,22.051 7.949,23.529 9.767,23.529 L20.231,23.529 C22.049,23.529 23.528,22.051 23.528,20.232 L23.528,13.249 ZM20.230,21.865 L9.766,21.865 C8.864,21.865 8.132,21.134 8.132,20.232 L8.132,13.249 L10.678,13.249 C10.458,13.789 10.335,14.381 10.335,14.999 C10.335,17.571 12.427,19.664 14.999,19.664 C17.572,19.664 19.664,17.571 19.664,14.999 C19.664,14.381 19.539,13.789 19.318,13.249 L21.865,13.249 L21.865,20.232 C21.865,21.134 21.132,21.865 20.230,21.865 ZM18.662,8.445 L21.177,8.437 L21.554,8.436 L21.554,8.810 L21.554,11.327 L18.672,11.336 L18.662,8.445 ZM14.999,18.001 C13.343,18.001 11.996,16.654 11.996,14.999 C11.997,14.345 12.209,13.741 12.564,13.249 C13.111,12.492 13.997,11.997 14.999,11.997 C16.001,11.997 16.887,12.493 17.433,13.249 C17.788,13.742 18.002,14.346 18.002,14.999 C18.002,16.655 16.653,18.001 14.999,18.001 Z"/>
</svg>