<svg 
 xmlns="http://www.w3.org/2000/svg"
 xmlns:xlink="http://www.w3.org/1999/xlink"
 width="30px" height="30px">
<path fill-rule="evenodd"  fill="rgb(239, 142, 135)"
 d="M15.000,0.000 C6.717,0.000 0.001,6.715 0.001,15.000 C0.001,21.141 3.694,26.418 8.979,28.738 C8.937,27.690 8.971,26.433 9.240,25.293 C9.528,24.076 11.170,17.120 11.170,17.120 C11.170,17.120 10.691,16.163 10.691,14.747 C10.691,12.524 11.979,10.864 13.583,10.864 C14.948,10.864 15.607,11.889 15.607,13.116 C15.607,14.488 14.732,16.539 14.282,18.439 C13.907,20.030 15.080,21.328 16.650,21.328 C19.492,21.328 21.406,17.678 21.406,13.353 C21.406,10.066 19.191,7.605 15.165,7.605 C10.614,7.605 7.780,10.998 7.780,14.788 C7.780,16.096 8.165,17.017 8.769,17.730 C9.046,18.058 9.085,18.190 8.984,18.566 C8.913,18.842 8.747,19.507 8.679,19.770 C8.579,20.150 8.271,20.286 7.928,20.146 C5.832,19.290 4.856,16.995 4.856,14.415 C4.856,10.155 8.450,5.045 15.576,5.045 C21.303,5.045 25.072,9.189 25.072,13.638 C25.072,19.521 21.801,23.917 16.979,23.917 C15.359,23.917 13.836,23.042 13.314,22.048 C13.314,22.048 12.443,25.504 12.259,26.171 C11.941,27.328 11.319,28.484 10.749,29.384 C12.098,29.783 13.523,29.999 15.000,29.999 C23.283,29.999 29.999,23.284 29.999,15.000 C29.999,6.715 23.283,0.000 15.000,0.000 Z"/>
</svg>